<svg xmlns="http://www.w3.org/2000/svg" viewBox="0 0 88.74 58.68" width="38" height="25">
    <defs>
        <style>.cls-1{fill:#a62749;}</style>
    </defs>
    <title>2Ресурс 15</title>
    <g id="Слой_2" data-name="Слой 2">
        <g id="Layer_1" data-name="Layer 1">
            <path class="cls-1"
                  d="M18.3,29.22H5V32H18.3V51.57h4.84a8.47,8.47,0,0,0,16.72,0H67.18a8.47,8.47,0,0,0,16.72,0h4.84V26L75.34,12.58H61.69V0H18.3V11.22H9V14h9.3v6.19H0V23H18.3v6.19ZM31.5,55.87a5.68,5.68,0,1,1,5.67-5.67A5.67,5.67,0,0,1,31.5,55.87Zm44,0a5.68,5.68,0,1,1,5.68-5.67A5.67,5.67,0,0,1,75.54,55.87ZM61.69,15.39H74.17L85.94,27.15V48.76h-2a8.48,8.48,0,0,0-16.71,0H39.85a8.47,8.47,0,0,0-16.7,0h-2v-8.2H61.69V15.39ZM21.11,20.22V14H30V11.22H21.11V2.81H58.88V37.75H21.11V32H32V29.22H21.11V23H26V20.22Z"/>
            <path class="cls-1" d="M81.54,29l-9.25-9.25H66.13V35.2H81.54Zm-2.81,3.36H68.94v-9.8h2.19l7.6,7.61Z"/>
        </g>
    </g>
</svg>