<?xml version="1.0" encoding="utf-8"?>
<!-- Generator: Adobe Illustrator 22.0.1, SVG Export Plug-In . SVG Version: 6.00 Build 0)  -->
<svg version="1.0" id="Layer_1" xmlns="http://www.w3.org/2000/svg" xmlns:xlink="http://www.w3.org/1999/xlink" x="0px" y="0px"
	 viewBox="0 0 90 76.7" enable-background="new 0 0 90 76.7" xml:space="preserve">
<g>
	<path fill="none" d="M63.9,4.7c-6.7,0-12.9,3.1-17,8.4L45,15.6l-1.9-2.5c-4.1-5.4-10.3-8.4-17-8.4c-11.8,0-21.4,9.6-21.4,21.4
		c0,20.4,33.7,41.3,40.3,45.2c6.6-3.6,40.2-23,40.2-45.2C85.3,14.3,75.7,4.7,63.9,4.7z"/>
	<path fill="#EE1E45" d="M63.9,0c-7.2,0-14,2.9-18.9,8.1C40.1,2.9,33.3,0,26.1,0C11.7,0,0,11.7,0,26.1c0,25.3,42.1,49,43.8,50
		l1.1,0.6l1.1-0.6c1.8-0.9,43.9-22.6,43.9-50C90,11.7,78.3,0,63.9,0z M45,71.3C38.5,67.4,4.7,46.5,4.7,26.1
		c0-11.8,9.6-21.4,21.4-21.4c6.7,0,12.9,3.1,17,8.4l1.9,2.5l1.9-2.5c4.1-5.4,10.3-8.4,17-8.4c11.8,0,21.4,9.6,21.4,21.4
		C85.3,48.3,51.7,67.7,45,71.3z"/>
</g>
</svg>
