<svg xmlns="http://www.w3.org/2000/svg" viewBox="0 0 85.3 85.02" width="18" height="18">
    <defs>
        <style>.cls-1{fill:#a62749;}</style>
    </defs>
    <title>2Ресурс 15</title>
    <g id="Слой_2" data-name="Слой 2">
        <g id="Layer_1" data-name="Layer 1">
            <path class="cls-1"
                  d="M28.51,69.12c.6.5,15.2,13,31.8,15.5a20.41,20.41,0,0,0,4.1.4,22.82,22.82,0,0,0,17.5-7.8,9.56,9.56,0,0,0,3.3-5.9c.4-2.7-.5-5.4-2.6-8.1l-.3-.3-12.1-11.8c-1.7-1.8-6-4.2-11.3-.9a2.18,2.18,0,0,0-.5.4l-5.6,5.5c-4.8-2.8-17.2-11.1-23.6-23.5l4-4a10.65,10.65,0,0,0,3.4-7.1,9.73,9.73,0,0,0-3.2-7.5l-12-12a1.38,1.38,0,0,0-.4-.3,10,10,0,0,0-12.2.8,27.13,27.13,0,0,0-8.1,26.1C.91,31.32,3.11,47,28.51,69.12Zm-15.8-62a3.89,3.89,0,0,1,4.7-.6l11.8,11.6a4.72,4.72,0,0,1,1.5,3,4.7,4.7,0,0,1-1.5,3,.1.1,0,0,0-.1.1l-5.5,5.5A2.92,2.92,0,0,0,23,33c8.2,18.4,28.1,28.9,29,29.3a3,3,0,0,0,3.5-.5l6.9-6.8c2-1.1,3.2-.4,3.5,0l.2.2,12,11.7a4.67,4.67,0,0,1,1.3,3.3,5.35,5.35,0,0,1-1.4,2.4h0a1.21,1.21,0,0,0-.5.5c-6.4,7.6-15.6,5.7-16,5.6h-.2c-14.9-2.2-28.7-14-28.8-14.1C7.71,43,6.71,28.42,6.61,28.12a1.27,1.27,0,0,0-.1-.6A21.28,21.28,0,0,1,12.71,7.12Z"/>
        </g>
    </g>
</svg>