<svg xmlns="http://www.w3.org/2000/svg" viewBox="0 0 4271.83 1051.89">
    <defs>
        <style>.cls-1,.cls-2{fill:#833948;}.cls-1{fill-rule:evenodd;}</style>
    </defs>
    <path class="cls-1"
          d="M43.23,239.3H23.78V207.21H43.23V239.3Zm39.78,0H63.59V207.2H83v32.1Zm39.82,0H103.38V207.21h19.45V239.3Zm-79.6,62.39H23.78V269.6H43.23v32.09Zm39.78,0H63.59V269.6H83v32.09ZM122.83,176.9H103.38V144.81h19.45V176.9ZM83,176.9H63.59V144.8H83v32.1Zm-39.78,0H23.78V144.81H43.23V176.9Zm79.6-62.39H103.38V82.42h19.45v32.09Zm-39.82,0H63.59V82.42H83v32.09Zm-39.78,0H23.78V82.42H43.23v32.09Zm79.6-62.39H103.38V20h19.45V52.12ZM83,52.12H63.59V20H83v32.1Zm-39.78,0H23.78V20H43.23V52.12ZM2822.89,601.9V0h260.29V85.23H2965.24V601.9Zm655.05-207.69c19.79,0,45.35,5.58,45.35-21.51V250.15c0-14.53-6.76-22-20.84-23.11l-24.51-.1V394.21ZM3139.85,215.42V512.3c0,11.8,18.1,23.32,31.15,23.25s29.48-11.7,29.48-23.25V215.42c0-11.42-16.42-23.13-29.48-23.26s-31.15,11.28-31.15,23.26ZM3034.51,511.73c0,29.3,4.93,56.82,27.19,78.1,10.43,10,35.59,15.93,57.75,15.77l109.62-.79c22.15-.15,45.84-5,56.28-15,22.25-21.28,27.19-48.83,27.19-78.1V218.4c0-29.56-6.71-59.64-28.79-80.87-10.65-10.23-33.79-15.39-54.68-15.39H3119.45c-10.43,0-30.5,1.56-40.16,5.52-36,14.74-44.78,56.07-44.78,90.73V511.73Zm366.18-260.22H3388.2V229.39h12.49v22.12Zm0-42.54H3388.2V186.85h12.49V209Zm0,297.78H3388.2V484.62h12.49v22.13Zm0-42.54H3388.2V442.09h12.49v22.12Zm0-42.55H3388.2V399.54h12.49v22.12Zm0-42.54H3388.2V357h12.49v22.12Zm0-42.53H3388.2V314.47h12.49v22.12Zm0-42.55H3388.2V271.93h12.49V294Zm28.19-42.53h-12.49V229.39h12.49v22.12Zm0-42.54h-12.49V186.85h12.49V209Zm0,255.24h-12.49V442.09h12.49v22.12Zm0-42.55h-12.49V399.54h12.49v22.12Zm0-42.54h-12.49V357h12.49v22.12Zm0-42.53h-12.49V314.47h12.49v22.12Zm0-42.55h-12.49V271.93h12.49V294Zm28.2-42.53h-12.5V229.39h12.5v22.12Zm0-42.54h-12.5V186.85h12.5V209Zm0,127.62h-12.5V314.47h12.5v22.12Zm0-42.55h-12.5V271.93h12.5V294ZM2944,243.93V211.84h-19.45v32.09Zm-39.82,0V211.84h-19.42v32.09Zm-39.78,0V211.84h-19.45v32.09Zm79.6,62.4v-32.1h-19.45v32.1Zm0,62.39V336.63h-19.45v32.09Zm0-187.18V149.45h-19.45v32.09Zm-39.82,0v-32.1h-19.42v32.1Zm-39.78,0V149.45h-19.45v32.09Zm79.6-62.39V87.07h-19.45v32.08Zm-39.82,0V87.06h-19.42v32.09Zm-39.78,0V87.07h-19.45v32.08Zm119.39-62.39V24.67h-19.44V56.76Zm-39.79,0V24.67h-19.45V56.76Zm-39.82,0V24.66h-19.42v32.1Zm-39.78,0V24.67h-19.45V56.76Zm199,0V24.66h-19.44v32.1Zm-39.8,0V24.67h-19.43V56.76Zm343.9,545.14V164.56h188.07v-.42h16.22c50.47,0,63.33,40.89,63.33,82.83v127.7c0,50-17.53,80.79-72.12,80.79h-85V601.9Zm-2033-351.37H1320.1v-23.7h14.41v23.7Zm0,45.65H1320.1V272.45h14.41v23.73Zm0,45.61H1320.1V318.07h14.41v23.72ZM1302,250.53h-14.4v-23.7H1302v23.7Zm0,45.65h-14.4V272.45H1302v23.73Zm0,45.61h-14.4V318.07H1302v23.72Zm0,45.62h-14.4V363.7H1302v23.71Zm-32.5-136.88h-14.39v-23.7h14.39v23.7Zm0,45.65h-14.39V272.45h14.39v23.73Zm0,45.61h-14.39V318.07h14.39v23.72ZM1238.88,601.9h112V404.05l78.66,197.85h106.82L1467.25,402,1552.8,193H1440.23l-89.38,209.49V210.13h-112V421.46L1173,266.17l-134.85.18,84.68,170L1022,601.9h138.18l78.66-178.84V601.9Zm-879.3-.11v-388H465.76V287.5h53.33V160.33H625.26V601.9H519.09V391.16H465.76V601.9l-106.18-.11Zm411.9-368.53H757.07V207.77h14.41v25.49Zm0,49H757.07V256.81h14.41V282.3Zm0-147.1H757.07V109.7h14.41v25.5Zm0,49H757.07v-25.5h14.41v25.5Zm-32.5,49h-14.4V207.77H739v25.49Zm0,49h-14.4V256.81H739V282.3Zm0,49h-14.4V305.84H739v25.49Zm0,49h-14.4v-25.5H739v25.5Zm0,49h-14.4V403.92H739v25.49Zm0-294.21h-14.4V109.7H739v25.5Zm0,49h-14.4v-25.5H739v25.5Zm-32.5,49h-14.4V207.77h14.4v25.49Zm0,49h-14.4V256.81h14.4V282.3Zm0,49h-14.4V305.84h14.4v25.49Zm0,49h-14.4v-25.5h14.4v25.5Zm0,49h-14.4V403.92h14.4v25.49Zm0,49h-14.4V453h14.4v25.49Zm0-343.24h-14.4V109.7h14.4v25.5Zm0,49h-14.4v-25.5h14.4v25.5ZM5.82,601.9H140.75V283.54l64.7,318.36H328.8L256.73,255.27,317.92,0h-124L140.75,281.64V0H5.82V601.9Zm667.05,0H790.64l91.19-202.39V601.9h110V196.33h-110L790.64,416.52V91.36H672.87V601.9Zm1191.72,0V138.66H1758.41V358.28h-67V207.41l-106.18.05V601.9h106.18V455.63h67V601.9Zm-15.66-330.47h-13.6v-23.2h13.6v23.2Zm0,44.66h-13.6V292.88h13.6v23.21Zm0-133.94h-13.6V158.93h13.6v23.22Zm-30.7,133.94h-13.6V292.88h13.6v23.21Zm0,44.64h-13.6V337.52h13.6v23.21Zm0-178.58h-13.6V158.93h13.6v23.22Zm0,44.64h-13.6V203.58h13.6v23.21Zm-30.7,44.64h-13.6v-23.2h13.6v23.2Zm0,89.3h-13.6V337.52h13.6v23.21Zm0-178.58h-13.6V158.93h13.6v23.22Zm0,44.64h-13.6V203.58h13.6v23.21Zm264,291.7h37.23c6.83,0,11.64-1.91,14.39-5.7a30.43,30.43,0,0,0,5.44-12.82,40.91,40.91,0,0,0,.64-7.13V385.49a39.09,39.09,0,0,0-.64-7.14,27.26,27.26,0,0,0-5.44-11.74c-2.74-3.54-7.4-5.36-13.75-5.36h-37.87V518.49Zm-112.9,83.41V61.75h112.9V275.16h89c3.84,0,8.12.26,12.79.73a93.14,93.14,0,0,1,14.72,2.13c11.18,2.94,21.22,10.2,30.39,20.65s13.75,28.05,13.75,52.73V528.52c0,3.29-.12,7-.33,11s-.47,8-1,11.77c-1.63,12.83-7.26,24.47-16.63,34.91s-27.53,15.67-54.38,15.67ZM2112,255.45h43.3c4.71,0,10,.33,15.68.89,22.53,2.21,37.25,15.63,47.2,35V131.28H2112V255.45ZM1969.93,150V126.55h-14.24V150Zm0-45.17V81.39h-14.24v23.47ZM2002.09,150V126.55h-14.24V150Zm0-45.17V81.39h-14.24v23.47ZM2034.26,150V126.55H2020V150Zm0-45.17V81.39H2020v23.47Zm172.53,140.86v-20h-16.45v20Zm0-38.9v-20h-16.45v20Zm0-38.9v-20h-16.45v20Zm-33.66,38.9v-20h-16.45v20Zm0-38.9v-20h-16.45v20Zm-33.66,38.9v-20H2123v20Zm0-38.9v-20H2123v20Zm474.78-94.31V601.9H2475.66V356.4l-78.27,245.5H2279.45V175.78h117.69l.25,222.92,78.27-249.16,0-75.93ZM2380.38,223.85V198.48H2366v25.37Zm-32.35,0V198.48H2333.7v25.37Zm0,48.8V247.28H2333.7v25.37Zm-32.34,48.78V296.08h-14.33v25.35Zm0-97.58V198.48h-14.33v25.37Zm0,48.8V247.28h-14.33v25.37Zm64.69-252v133.2l34.92,0,54.81-133.16ZM3768.93,322.94V507c0,26.4,46.68,25.8,46.68,0v-184c0-25.64-46.68-26.72-46.68,0Zm66.7-.45h13.45v19.72h-13.45V322.49Zm0,38h13.45v19.72h-13.45V360.45Zm36.49,0h13.44v19.72h-13.44V360.45Zm-36.49,57.67h13.45V398.39h-13.45v19.73Zm36.49,0h13.44V398.39h-13.44v19.73Zm0-95.63h13.44v19.72h-13.44V322.49ZM3835.63,494h13.45V474.29h-13.45V494Zm0-37.95h13.45V436.35h-13.45v19.72Zm36.49,0h13.44V436.35h-13.44v19.72Zm-200.8,43.81V332.71c0-58.87,19.8-108.39,82.89-108.39h73.41c63.09,0,82.89,49.53,82.89,108.39V499.88c0,32-4.43,63.44-27.19,88-10.44,11.26-33.53,18-55.7,17.77h-73.41c-22.17.26-45.26-6.51-55.7-17.77-22.77-24.52-27.19-56-27.19-88Zm164.31-253.29v19.72h13.45V246.59Zm0,38v19.73h13.45V284.54Zm36.49,0v19.73h13.44V284.54ZM4066.2,503.83h82.21l-41.1-260.91L4066.2,503.83ZM3948.59,601.9V503.83h18.48L4020,148.74h174.67l52.9,355.09H4266V601.9Zm81.62-350.23h14.39V225.08h-14.39v26.59Zm0,51.12h14.39V276.21h-14.39v26.58Zm0,51.12h14.39V327.33h-14.39v26.58Zm0,51.13h14.39V378.45h-14.39V405Zm39-153.37V225.08h14.4v26.59Zm0,51.12V276.21h14.4v26.58Zm-39-102.26h14.39V173.94h-14.39v26.59Zm39,0h14.4V173.94h-14.4Z"/>
    <path class="cls-1"
          d="M63.06,904.2a254.6,254.6,0,0,0,1.41,29.22,153.65,153.65,0,0,0,5.07,24.31H28.65a153.29,153.29,0,0,0,5-24.07A257.19,257.19,0,0,0,35,904.2V826.49a252.07,252.07,0,0,0-1.41-29.06A159.11,159.11,0,0,0,28.53,773H69.42a154.26,154.26,0,0,0-5,24.19,255.89,255.89,0,0,0-1.41,29.34v27.93l27-33.24q15.82-19.08,23.06-29.7c4.83-7.09,8.09-13.24,9.74-18.52h46.45c-5.36,3.06-11.15,7.73-17.47,14s-14.77,15.86-25.48,28.86L93.73,855.27l39,48.93q22.4,27.94,32.48,39.73c6.72,7.88,11.23,12.47,13.48,13.8H130.51c-.08-3.46-1.45-7.93-4.19-13.44a87.85,87.85,0,0,0-10.66-16.5L63.1,861.5h0v42.7Zm131.36,16V867.06a135.46,135.46,0,0,0-1.17-18.64A140.87,140.87,0,0,0,189,829.55h36.59a47.55,47.55,0,0,0-4.31,14.37A163.36,163.36,0,0,0,220,867.06v53.16a162.83,162.83,0,0,0,1.25,23.18,47.46,47.46,0,0,0,4.31,14.33H189a44.16,44.16,0,0,0,4.27-14.17,178.57,178.57,0,0,0,1.17-23.34ZM206.57,776a15.54,15.54,0,0,1,12.2,5.8,22.43,22.43,0,0,1,0,28.21,15.92,15.92,0,0,1-24.43,0,22.43,22.43,0,0,1,0-28.21,15.54,15.54,0,0,1,12.23-5.8Zm81.34,144.2V848.54l-7.21.85c-13.52,1.93-24.71,5.31-33.6,10l5.07-14.89,5.07-15h96.35l-4,14.16-4.1,14.13a210.93,210.93,0,0,0-28-8.81l-3.91-.73v71.92q0,14.43,1.37,22.58a50.25,50.25,0,0,0,4.75,14.93H281.91A48.61,48.61,0,0,0,286.62,943a158.57,158.57,0,0,0,1.29-22.78ZM411.1,960.54q-18.78,0-28.9-8t-10.14-22.9q0-9.9,7.12-18.63a48.57,48.57,0,0,1,19.28-13.81l37.75-15.54V870q0-10.5-6.48-16.66c-4.35-4.14-10.14-6.19-17.47-6.19a39.47,39.47,0,0,0-13.68,2.41,65.94,65.94,0,0,0-14.49,7.93l7.09-24.63a77.11,77.11,0,0,1,14.6-4.63,68.32,68.32,0,0,1,14.37-1.49q20.78,0,31.23,10.87c7,7.2,10.42,18,10.42,32.39v50.23a213,213,0,0,0,1,24.23,39.69,39.69,0,0,0,3.58,13.28H436.21V945.45L416.29,960.3l-5.19.24Zm25.11-22.29V903h-33c-.77,0-1.77,2.38-3,7.13a50.26,50.26,0,0,0-1.81,12c0,6,2,10.59,5.92,13.61s9.81,4.54,17.66,4.54a49.15,49.15,0,0,0,14.05-2Zm88,19.48H487.64a44.41,44.41,0,0,0,4.27-14.17,180.37,180.37,0,0,0,1.17-23.34V867.06a163.36,163.36,0,0,0-1.25-23.14,47.55,47.55,0,0,0-4.31-14.37H594.57a45.74,45.74,0,0,0-4.26,14.29,177.35,177.35,0,0,0-1.17,23.22v53.16c0,10,.4,17.71,1.25,23.18a47.18,47.18,0,0,0,4.3,14.33H558.11a44.67,44.67,0,0,0,4.27-14.17,180.71,180.71,0,0,0,1.16-23.34V847.34H518.67v72.88a174.44,174.44,0,0,0,1.17,23.1,49.69,49.69,0,0,0,4.38,14.41Zm133.22-37.51V848.54l-7.21.85c-13.52,1.93-24.71,5.31-33.6,10l5.07-14.89,5.07-15h96.35l-4,14.16L715,857.84a210.93,210.93,0,0,0-28-8.81L683,848.3v71.92c0,9.62.44,17.15,1.37,22.58a49.68,49.68,0,0,0,4.75,14.93H651.44A48.61,48.61,0,0,0,656.15,943a158.57,158.57,0,0,0,1.29-22.78Zm123.19,40.32q-18.78,0-28.9-8t-10.14-22.9q0-9.9,7.12-18.63A48.57,48.57,0,0,1,768,897.2l37.75-15.54V870q0-10.5-6.48-16.66c-4.35-4.14-10.14-6.19-17.47-6.19a39.43,39.43,0,0,0-13.68,2.41,65.94,65.94,0,0,0-14.49,7.93l7.08-24.63a77.2,77.2,0,0,1,14.61-4.63,68.32,68.32,0,0,1,14.37-1.49q20.77,0,31.23,10.87c7,7.2,10.42,18,10.42,32.39v50.23a212.54,212.54,0,0,0,1,24.23,39.45,39.45,0,0,0,3.58,13.28H805.74V945.45L785.82,960.3l-5.19.24Zm25.11-22.29V903h-33c-.77,0-1.77,2.38-3,7.13a50.26,50.26,0,0,0-1.81,12c0,6,2,10.59,5.91,13.61s9.82,4.54,17.67,4.54a49.15,49.15,0,0,0,14-2Zm57.43-71.19A137.05,137.05,0,0,0,862,848.42a140.87,140.87,0,0,0-4.27-18.87h31v22.29l17.47-20.64,3.18-1.65A34.25,34.25,0,0,1,924,826.73q20.4,0,33,19t12.64,49.38c0,20.92-4,37-12,48.41s-19.35,17-34.17,17a52.26,52.26,0,0,1-34.77-12.84h0v13.21A123.52,123.52,0,0,0,890,979.42a147.91,147.91,0,0,0,4.31,19H857.73a117.76,117.76,0,0,0,5.44-37.5V867.06Zm47.17,73.2q15.81,0,24.42-11.51t8.62-32.68q0-20.88-8.33-33.08T912.59,850.8q-7.07,0-16.06,3.66a68,68,0,0,0-7.77,3.78h0v70.59c5.84,7.61,13,11.43,21.58,11.43Zm182.63-20a123.22,123.22,0,0,0,1.24,18.51,149.24,149.24,0,0,0,4.31,19h-36.58A138.53,138.53,0,0,0,1066.2,939a136.56,136.56,0,0,0,1.17-18.76V839.93l-8.85-10.38h34.32a22.29,22.29,0,0,0,2.3,8.37,39.43,39.43,0,0,0,5.63,8.73l34.49,41.61h-.16l30.59-37.38a74.51,74.51,0,0,0,8.29-12c2.09-3.91,3.22-7,3.3-9.3h33.56a41.66,41.66,0,0,0-6.36,15c-1.16,5.51-1.77,13-1.77,22.54v53.16a123.14,123.14,0,0,0,1.25,18.51,149.24,149.24,0,0,0,4.31,19h-36.58A134.56,134.56,0,0,0,1176,939.1a137.56,137.56,0,0,0,1.17-18.88v-49.5h0l-42,51h0l-42-51h0v49.5Zm192.33,40.32q-26.5,0-43.51-17.74t-17-45.56q0-30.3,14.93-50.43t37.31-20.08h.24q21.92,0,33.8,15.21t11.83,43.39v11.55h-71q1.88,17.45,10.14,29,10.52,14.6,28.54,14.6a61.68,61.68,0,0,0,16-2.13,55,55,0,0,0,14.28-6l-10.14,24.5a112.53,112.53,0,0,1-13.48,2.94,86.16,86.16,0,0,1-12,.72Zm16.62-81.45h0q-.12-16.79-6.16-25.6T1278,844.64h.12q-12.73,0-19.68,10.87c-3.7,5.79-6,13.68-6.72,23.58h50.23Zm73,41.13a142.73,142.73,0,0,0,1.37,22.54,50.13,50.13,0,0,0,4.75,15h-37.71a49.74,49.74,0,0,0,4.71-14.85,157.57,157.57,0,0,0,1.29-22.66V867.06a116.43,116.43,0,0,0-1.29-17.59,172.5,172.5,0,0,0-4.71-19.92h83.11L1420,843.19l-6.48,13.68a101.83,101.83,0,0,0-38.68-9.29h0v72.64Zm104.36,40.32q-18.78,0-28.9-8t-10.14-22.9q0-9.9,7.12-18.63a48.57,48.57,0,0,1,19.28-13.81l37.75-15.54V870q0-10.5-6.48-16.66c-4.35-4.14-10.14-6.19-17.47-6.19a39.43,39.43,0,0,0-13.68,2.41,65.94,65.94,0,0,0-14.49,7.93l7.09-24.63a77.11,77.11,0,0,1,14.6-4.63,68.32,68.32,0,0,1,14.37-1.49q20.78,0,31.23,10.87c7,7.2,10.42,18,10.42,32.39v50.23a213,213,0,0,0,1,24.23,39.69,39.69,0,0,0,3.58,13.28h-30.18V945.45l-19.92,14.85-5.19.24Zm25.11-22.29V903h-33c-.77,0-1.77,2.38-3,7.13a50.26,50.26,0,0,0-1.81,12c0,6,2,10.59,5.91,13.61s9.82,4.54,17.67,4.54a49.15,49.15,0,0,0,14-2Zm88,19.48h-36.59a44.41,44.41,0,0,0,4.27-14.17,180.37,180.37,0,0,0,1.17-23.34V867.06a163.36,163.36,0,0,0-1.25-23.14,47.55,47.55,0,0,0-4.31-14.37h107a45.74,45.74,0,0,0-4.26,14.29,177.35,177.35,0,0,0-1.17,23.22v53.16c0,10,.4,17.71,1.25,23.18a47.18,47.18,0,0,0,4.3,14.33h-36.58a44.67,44.67,0,0,0,4.27-14.17,180.71,180.71,0,0,0,1.16-23.34V847.34h-44.87v72.88a174.44,174.44,0,0,0,1.17,23.1,49.39,49.39,0,0,0,4.39,14.41Zm144.51,2.81q-24.26,0-40.44-18t-16.14-45.08q0-30.42,18-50.59t45-20.16q24.39,0,40.49,18t16.1,45.16q0,30.42-17.91,50.5t-45.08,20.12Zm13.81-17.9c6.92-2.9,12.39-8.25,16.46-16s6.08-16.82,6.08-27.21q0-24.51-11.8-39.32t-32-15.49c-6.92,2.82-12.4,8.17-16.46,16s-6.08,16.94-6.08,27.28q0,24.57,11.79,39.28t32,15.46Zm146.65-95.3h-42.9v67.33q0,23.36-8.89,34.61t-27.41,11.27h-.72l-13.69-23.82c2,1.33,5.31,2,9.78,2,5.84,0,9.82-1.73,12-5.19s3.3-9.74,3.3-18.87V867.06a138.16,138.16,0,0,0-1.16-18.76,139.89,139.89,0,0,0-4.27-18.75h105.08a149.12,149.12,0,0,0-4.31,19,123.36,123.36,0,0,0-1.24,18.52v53.16a123.22,123.22,0,0,0,1.24,18.51,149.24,149.24,0,0,0,4.31,19h-36.58a134.56,134.56,0,0,0,4.26-18.63,137.56,137.56,0,0,0,1.17-18.88V847.34Zm129.19,28.53-43.83,66.77.12.72a51.41,51.41,0,0,0,4.35,14.37h-36.54a44.42,44.42,0,0,0,4.26-14.17,178.57,178.57,0,0,0,1.17-23.34V867.06a161.86,161.86,0,0,0-1.25-23.14,47,47,0,0,0-4.31-14.37h36.59a46,46,0,0,0-4.27,14.29,179.14,179.14,0,0,0-1.17,23.22V911.4l43.82-66.76-.12-.72a50.56,50.56,0,0,0-4.35-14.37h36.55a45.48,45.48,0,0,0-4.27,14.29,179.14,179.14,0,0,0-1.17,23.22v53.16c0,10,.4,17.71,1.25,23.18a47.18,47.18,0,0,0,4.31,14.33H2021.1a44.42,44.42,0,0,0,4.26-14.17,180.37,180.37,0,0,0,1.17-23.34V875.87Zm135.62,81a119.61,119.61,0,0,1-14.08,2.94,96.74,96.74,0,0,1-12.68.73q-25.47,0-42.42-17.91t-16.9-45q0-30.42,18.75-50.67t46.93-20.2c5,0,9.42.16,13.16.53s8.89,1.12,15.49,2.29l-1.28,29.58A49,49,0,0,0,2155,848.06a34.68,34.68,0,0,0-15.41-3.42q-17,0-26.93,12.8c-6.64,8.53-10,20-10,34.61q0,22.28,10.58,35.38t28.46,13.07a49.31,49.31,0,0,0,12.72-1.77,155.45,155.45,0,0,0,17.82-6.35l-10.14,24.5Zm34-36.66V867.06a135.46,135.46,0,0,0-1.17-18.64,142.26,142.26,0,0,0-4.26-18.87h36.58a47.55,47.55,0,0,0-4.31,14.37,163.36,163.36,0,0,0-1.25,23.14v53.16A162.83,162.83,0,0,0,2223,943.4a47.46,47.46,0,0,0,4.31,14.33h-36.58a44.42,44.42,0,0,0,4.26-14.17,178.57,178.57,0,0,0,1.17-23.34ZM2208.27,776a15.54,15.54,0,0,1,12.2,5.8,22.43,22.43,0,0,1,0,28.21,15.92,15.92,0,0,1-24.43,0,22.43,22.43,0,0,1,0-28.21,15.54,15.54,0,0,1,12.23-5.8Zm66.93,133.7a56.26,56.26,0,0,1-9.86-19.12c-1.89-6.72-2.86-15.33-2.86-25.8V814.33c0-8.93-.72-16.29-2.21-22a72.79,72.79,0,0,0-8.29-19h46.56a72.93,72.93,0,0,0-8.29,19c-1.49,5.71-2.21,13.08-2.21,22V864.8c0,10.39-1,18.92-2.86,25.64a57.72,57.72,0,0,1-10,19.28Zm0,10.86a19,19,0,0,1,14.13,5.84,19.4,19.4,0,0,1,5.79,14.21,19.92,19.92,0,1,1-39.84,0,19.4,19.4,0,0,1,5.79-14.21A19,19,0,0,1,2275.2,920.58Z"/>
    <path class="cls-1"
          d="M2516,904.2a257.2,257.2,0,0,0,1.4,29.22,155.92,155.92,0,0,0,5.07,24.31h-40.88a153.29,153.29,0,0,0,5-24.07,259.81,259.81,0,0,0,1.4-29.46V795.14L2468.82,773h43.38a22.55,22.55,0,0,0,2.26,8.34,41,41,0,0,0,5.51,8.77L2578.2,862h.05l53.16-67.69a65.77,65.77,0,0,0,7.68-11.71c2-3.9,2.94-7.08,2.94-9.62h39.52a83.79,83.79,0,0,0-11.83,24.31q-3.37,11.78-3.38,29.22V904.2a254.6,254.6,0,0,0,1.41,29.22,154.78,154.78,0,0,0,5.07,24.31h-40.89a151,151,0,0,0,5-24.07,257.19,257.19,0,0,0,1.41-29.46V824.6h0l-61.05,79.6L2516,828.74V904.2Zm240.3,56.34q-26.51,0-43.51-17.74t-17-45.56q0-30.3,14.93-50.43T2748,826.73h.24q21.91,0,33.8,15.21t11.84,43.39v11.55h-71q1.88,17.45,10.15,29,10.5,14.6,28.53,14.6a61.63,61.63,0,0,0,16-2.13,55,55,0,0,0,14.28-6l-10.14,24.5a112.53,112.53,0,0,1-13.48,2.94,86.06,86.06,0,0,1-12,.72Zm16.62-81.45h0q-.12-16.79-6.16-25.6T2749,844.64h.13q-12.75,0-19.69,10.87c-3.7,5.79-6,13.68-6.72,23.58h50.23Zm73,41.13a142.73,142.73,0,0,0,1.37,22.54,50.13,50.13,0,0,0,4.75,15h-37.71a49.74,49.74,0,0,0,4.71-14.85,157.57,157.57,0,0,0,1.29-22.66V867.06a116.43,116.43,0,0,0-1.29-17.59,172.5,172.5,0,0,0-4.71-19.92h83.11L2891,843.19l-6.48,13.68a101.83,101.83,0,0,0-38.68-9.29h0v72.64Zm104.36,40.32q-18.78,0-28.9-8t-10.14-22.9q0-9.9,7.12-18.63a48.57,48.57,0,0,1,19.28-13.81l37.75-15.54V870q0-10.5-6.48-16.66c-4.34-4.14-10.14-6.19-17.47-6.19a39.47,39.47,0,0,0-13.68,2.41,66.17,66.17,0,0,0-14.49,7.93l7.09-24.63a77,77,0,0,1,14.61-4.63,68.16,68.16,0,0,1,14.36-1.49q20.78,0,31.23,10.87c7,7.2,10.43,18,10.43,32.39v50.23a213,213,0,0,0,1,24.23,39.69,39.69,0,0,0,3.58,13.28h-30.18V945.45l-19.92,14.85-5.19.24Zm25.11-22.29V903h-33q-1.14,0-3,7.13a50.26,50.26,0,0,0-1.81,12c0,6,2,10.59,5.92,13.61s9.82,4.54,17.66,4.54a49.15,49.15,0,0,0,14-2Zm88,19.48h-36.59a44.41,44.41,0,0,0,4.27-14.17,180.37,180.37,0,0,0,1.17-23.34V867.06a163.36,163.36,0,0,0-1.25-23.14,47,47,0,0,0-4.31-14.37h107a45.74,45.74,0,0,0-4.26,14.29,177.35,177.35,0,0,0-1.17,23.22v53.16c0,10,.4,17.71,1.25,23.18a47.18,47.18,0,0,0,4.31,14.33h-36.59a44.41,44.41,0,0,0,4.27-14.17,180.37,180.37,0,0,0,1.17-23.34V847.34H3057.8v72.88a174.44,174.44,0,0,0,1.17,23.1,49.69,49.69,0,0,0,4.39,14.41Zm144.52,2.81q-24.27,0-40.45-18t-16.14-45.08q0-30.42,18-50.59t45-20.16q24.39,0,40.49,18t16.1,45.16q0,30.42-17.91,50.5t-45.07,20.12Zm13.8-17.9c6.92-2.9,12.39-8.25,16.46-16s6.08-16.82,6.08-27.21q0-24.51-11.8-39.32t-32-15.49c-6.92,2.82-12.39,8.17-16.46,16s-6.08,16.94-6.08,27.28q0,24.57,11.8,39.28t31.95,15.46Zm146.65-95.3h-42.9v67.33q0,23.36-8.89,34.61t-27.41,11.27h-.72l-13.69-23.82c2.06,1.33,5.31,2,9.78,2,5.84,0,9.82-1.73,12-5.19s3.3-9.74,3.3-18.87V867.06a117.76,117.76,0,0,0-5.44-37.51h105.08a147.23,147.23,0,0,0-4.3,19,122,122,0,0,0-1.25,18.52v53.16a121.84,121.84,0,0,0,1.25,18.51,147.34,147.34,0,0,0,4.3,19H3362.9a134.56,134.56,0,0,0,4.26-18.63,137.56,137.56,0,0,0,1.17-18.88V847.34Zm129.19,28.53-43.83,66.77.12.72a51.41,51.41,0,0,0,4.35,14.37h-36.54a44.42,44.42,0,0,0,4.26-14.17,178.57,178.57,0,0,0,1.17-23.34V867.06a161.86,161.86,0,0,0-1.25-23.14,47.26,47.26,0,0,0-4.3-14.37h36.58a46,46,0,0,0-4.27,14.29,179.48,179.48,0,0,0-1.16,23.22V911.4l43.82-66.76-.12-.72a50.56,50.56,0,0,0-4.35-14.37h36.55a46,46,0,0,0-4.27,14.29,179.14,179.14,0,0,0-1.17,23.22v53.16a162.83,162.83,0,0,0,1.25,23.18,47.46,47.46,0,0,0,4.31,14.33h-36.58a44.42,44.42,0,0,0,4.26-14.17,178.57,178.57,0,0,0,1.17-23.34V875.87Zm135.62,81a119.61,119.61,0,0,1-14.08,2.94,96.74,96.74,0,0,1-12.68.73q-25.47,0-42.42-17.91t-16.9-45q0-30.42,18.75-50.67t46.93-20.2c5,0,9.42.16,13.16.53s8.89,1.12,15.49,2.29l-1.28,29.58A49,49,0,0,0,3626,848.06a34.68,34.68,0,0,0-15.41-3.42q-17,0-26.93,12.8c-6.64,8.53-10,20-10,34.61q0,22.28,10.59,35.38t28.45,13.07a49.25,49.25,0,0,0,12.72-1.77,156.15,156.15,0,0,0,17.83-6.35l-10.15,24.5Zm135-36.66a163.11,163.11,0,0,0,1.24,23.18,47.46,47.46,0,0,0,4.31,14.33h-36.58a44.42,44.42,0,0,0,4.26-14.17,178.57,178.57,0,0,0,1.17-23.34V867.06a161.86,161.86,0,0,0-1.25-23.14,47.26,47.26,0,0,0-4.3-14.37h36.58a44.59,44.59,0,0,0-4.27,14.17,180.71,180.71,0,0,0-1.16,23.34v18.75l6.15-8q15.22-19,22.18-29.58t9.41-18.63h40.53a102.31,102.31,0,0,0-14.29,11.67c-4.46,4.38-9.94,10.5-16.38,18.27l-20.4,25.23,26.88,35.5c9.86,12.67,17,21.73,21.62,27.25s7.72,8.93,9.53,10.26h-43.34c0-3.55-1.29-8.05-3.82-13.56a84.28,84.28,0,0,0-10.18-16.38l-27.85-36.59h0v29Zm100.09,0V867.06a137.05,137.05,0,0,0-1.17-18.64,144,144,0,0,0-4.27-18.87h36.58a147.23,147.23,0,0,0-4.3,19,122.44,122.44,0,0,0-1.25,18.52v15.21h45V867.06a162.34,162.34,0,0,0-1.25-23.1,47.46,47.46,0,0,0-4.31-14.41h36.58a45.74,45.74,0,0,0-4.26,14.29,177.35,177.35,0,0,0-1.17,23.22v53.16c0,10,.4,17.71,1.25,23.18a47.18,47.18,0,0,0,4.3,14.33h-36.58a44.67,44.67,0,0,0,4.27-14.17,180.71,180.71,0,0,0,1.16-23.34V900.05h-45v20.17c0,10,.4,17.71,1.25,23.18a47.18,47.18,0,0,0,4.3,14.33h-36.58a44.67,44.67,0,0,0,4.27-14.17,180.71,180.71,0,0,0,1.16-23.34ZM4068,875.87l-43.83,66.77.12.72a51.41,51.41,0,0,0,4.35,14.37h-36.54a44.42,44.42,0,0,0,4.26-14.17,178.57,178.57,0,0,0,1.17-23.34V867.06a161.86,161.86,0,0,0-1.25-23.14,47.26,47.26,0,0,0-4.3-14.37h36.58a46,46,0,0,0-4.27,14.29,179.48,179.48,0,0,0-1.16,23.22V911.4l43.82-66.76-.12-.72a50.88,50.88,0,0,0-4.34-14.37H4099a46,46,0,0,0-4.27,14.29,179.48,179.48,0,0,0-1.16,23.22v53.16a163.11,163.11,0,0,0,1.24,23.18,47.46,47.46,0,0,0,4.31,14.33h-36.58a44.42,44.42,0,0,0,4.26-14.17,178.57,178.57,0,0,0,1.17-23.34V875.87Zm84.67,44.35a144,144,0,0,0,1.37,22.54,50.13,50.13,0,0,0,4.75,15H4121a49.17,49.17,0,0,0,4.71-14.85,156.12,156.12,0,0,0,1.29-22.66V867.06a115.15,115.15,0,0,0-1.29-17.59,168.43,168.43,0,0,0-4.71-19.92h83.11l-6.36,13.64-6.48,13.68a101.83,101.83,0,0,0-38.68-9.29h0v72.64Zm95.87-10.5a56.26,56.26,0,0,1-9.86-19.12c-1.89-6.72-2.86-15.33-2.86-25.8V814.33c0-8.93-.72-16.29-2.21-22a72.79,72.79,0,0,0-8.29-19h46.56a72.93,72.93,0,0,0-8.29,19c-1.49,5.71-2.21,13.08-2.21,22V864.8c0,10.39-1,18.92-2.86,25.64a57.72,57.72,0,0,1-10,19.28Zm0,10.86a19,19,0,0,1,14.12,5.84,19.37,19.37,0,0,1,5.8,14.21,19.92,19.92,0,1,1-39.84,0,19.4,19.4,0,0,1,5.79-14.21A19,19,0,0,1,4248.49,920.58Z"/>
    <rect class="cls-2" x="2355.43" y="867.63" width="43.88" height="43.88"
          transform="translate(67.33 1941.69) rotate(-45)"/>
    <rect class="cls-2" y="693.95" width="4271.55" height="9.33"/>
    <rect class="cls-2" y="1042.56" width="4271.55" height="9.33"/>
</svg>