<?xml version="1.0" encoding="utf-8"?>
<!-- Generator: Adobe Illustrator 22.0.1, SVG Export Plug-In . SVG Version: 6.00 Build 0)  -->
<svg version="1.0" id="Layer_1" xmlns="http://www.w3.org/2000/svg" xmlns:xlink="http://www.w3.org/1999/xlink" x="0px" y="0px"
	 viewBox="0 0 63 19.1" enable-background="new 0 0 63 19.1" xml:space="preserve">
<g>
	<polygon fill="#747474" points="27.2,0.6 26.3,0.6 23.1,18.6 28.2,18.6 31.3,0.6 	"/>
	<path fill="#747474" d="M45.5,12.7c0-2.1-1.3-3.7-4.3-5c-1.8-0.9-2.9-1.4-2.9-2.3c0-0.8,0.9-1.6,2.9-1.6c1.7,0,2.9,0.3,3.8,0.7
		l0.5,0.2l0.8-3.9c-1-0.4-2.6-0.8-4.6-0.8c-5,0-8.6,2.5-8.6,6.1c0,2.7,2.5,4.1,4.5,5c1.3,0.6,2.1,1.1,2.4,1.6l-0.3-0.3
		c0.2,0.2,0.3,0.3,0.4,0.5c0.1,0.2,0.1,0.3,0.1,0.5c0,1.2-1.6,1.8-3,1.8c-2,0-3.1-0.3-4.8-1l-0.7-0.3L31,18c0,0,0,0,0,0l0,0.1
		c1.2,0.5,3.4,1,5.7,1c3.2,0,5.8-0.9,7.3-2.5l-0.1-0.1C44.9,15.5,45.5,14.2,45.5,12.7z"/>
	<path fill="#747474" d="M17.1,16.9l7.3-16.2H20h-1l-3.5,8.5l0,0L13.9,13l-0.4-2.5c-0.1-0.2-0.2-0.5-0.3-0.7l0,0l-1.6-7.6
		c-0.3-1.2-1.2-1.5-2.3-1.5H0l3.1,1c1.2,0.5,2.3,1,3.4,1.6l4.4,15.5h5.4l0-0.1h0.1L17.1,16.9z"/>
	<path fill="#747474" d="M61.3,11.3L61.3,11.3L58.8,0.6h-2.7h-1.2c-1.2,0-2.1,0.1-2.6,1.3l-7.5,16.7h0.7h4.7l1-3h6.4l0.6,3H63
		L61.3,11.3z M55.6,7.2c0,0,0.9,4.2,1.2,5.4h-4.2c0.4-1,2-5.3,2-5.3s0.4-1.1,0.7-1.8L55.6,7.2z"/>
</g>
</svg>
