<?xml version="1.0" encoding="utf-8"?>
<!-- Generator: Adobe Illustrator 22.0.1, SVG Export Plug-In . SVG Version: 6.00 Build 0)  -->
<svg version="1.0" id="Layer_1" xmlns="http://www.w3.org/2000/svg" xmlns:xlink="http://www.w3.org/1999/xlink" x="0px" y="0px"
	 viewBox="0 0 58.7 8.7" enable-background="new 0 0 58.7 8.7" xml:space="preserve">
<g>
	<g>
		<g>
			<path fill="#747474" d="M46.9,8.6l1.3-6.8h1.6L50,2.5c0.3-0.3,0.8-0.7,1.8-0.7l-0.5,1.8c-0.5,0-1.3-0.1-1.9,1.9l-0.6,3.1H46.9"/>
		</g>
		<g>
			<path fill="#747474" d="M22.4,0.1h1.8l-0.4,1.8h1l-0.3,1.4h-0.9L23.1,6c-0.1,0.5,0,1,1,0.8l-0.2,1.5c-0.4,0.3-0.9,0.3-1.4,0.3
				c-0.4,0-1.8-0.3-1.5-2.1L22.4,0.1"/>
		</g>
		<g>
			<path fill="#747474" d="M30.4,5.6c0.2-1.1,0.7-3.8-2.5-3.8c-3,0-3.4,3-3.4,3.4c-0.1,0.4-0.1,3.4,3.1,3.4c0.8,0,1.9-0.1,2.4-0.3
				l0.3-1.4C30,7,29,7.1,28.2,7.1c-0.7,0-1.9,0-1.7-1.5L30.4,5.6"/>
		</g>
		<g>
			<path fill="#747474" d="M20.6,3.4L21,2c-0.9-0.3-1.6-0.3-1.8-0.3c-0.3,0-2.5,0-2.8,1.6c-0.3,1.3,0.2,1.8,0.6,2
				c0.7,0.3,1.1,0.6,1.5,0.8c0.5,0.2,0.4,1-0.2,1c-0.3,0-1.5,0.1-2.4-0.2l-0.3,1.4c0.9,0.2,1.5,0.2,2.2,0.2c0.5,0,2.7,0.1,3-1.9
				c0.2-1-0.3-1.4-0.6-1.7c-0.4-0.2-0.9-0.6-1.3-0.7c-0.4-0.2-0.7-0.8,0-1C19.2,3.3,20.1,3.3,20.6,3.4"/>
		</g>
		<g>
			<polyline fill="#747474" points="8.6,8.6 10.2,0.4 7.1,0.4 4.9,5.4 4.5,0.4 1.6,0.4 0,8.6 1.8,8.6 3,2.7 3.5,8.6 5.2,8.6 
				7.8,2.8 6.7,8.6 8.6,8.6 			"/>
		</g>
		<g>
			<path fill="#747474" d="M10.7,2l-0.3,1.5c0.5,0,1.7-0.2,2.3-0.2s1.4-0.1,1.1,0.9c-0.5,0-3.8-0.5-4.3,2.4c-0.2,1.4,1,2.1,1.9,2.1
				s1.2-0.2,1.5-0.4l0.2,0.4h1.7L15.5,5c0.2-0.9,0.5-3.1-2.6-3.1C12.5,1.8,11.9,1.8,10.7,2"/>
		</g>
		<g>
			<path fill="#747474" d="M40.6,2.3C40.1,2,39.8,2,39.2,2c-0.6,0-2,0.6-2.2,2.2c-0.3,2,1,2.9,2.9,2.3l0.5,1.7
				c-0.6,0.3-1.2,0.4-2.2,0.4c-1.9,0-4-1.7-3.1-5.2C35.8,0.9,38-0.1,39.3,0c1.5,0.1,2.1,0.6,2.5,1.1L40.6,2.3"/>
		</g>
		<g>
			<path fill="#747474" d="M56.3,2.6c-0.4-0.3-0.6-0.8-1.4-0.8c-1,0-2.6-0.2-3.5,2.9c-0.6,2.1,0.6,3.9,1.9,3.9
				c0.6,0,1.2-0.3,1.6-0.5l0.2,0.5h2L58.7,0h-1.9L56.3,2.6"/>
		</g>
		<g>
			<path fill="#747474" d="M41.9,2l-0.3,1.5c0.5,0,1.7-0.2,2.3-0.2s1.3-0.1,1.1,0.9c-0.5,0-3.8-0.5-4.3,2.4c-0.2,1.4,1,2.1,1.9,2.1
				s1.2-0.2,1.5-0.4l0.2,0.4H46L46.7,5c0.2-0.9,0.5-3.1-2.6-3.1C43.8,1.8,43.1,1.8,41.9,2"/>
		</g>
		<g>
			<path fill="#FFFFFF" d="M26.5,4.3h2.3c0.1-0.7-0.1-1.2-0.8-1.2C27.2,3.1,26.7,3.5,26.5,4.3"/>
		</g>
		<g>
			<path fill="#FFFFFF" d="M13.5,5.6c-0.3,0-1-0.2-1.6,0.2s-0.8,1.1-0.1,1.3c0.6,0.2,1.4-0.2,1.6-0.8L13.5,5.6"/>
		</g>
		<g>
			<path fill="#FFFFFF" d="M55.7,5.4c0.2-0.6,0.1-1.4-0.1-1.7C55,2.9,53.7,3.5,53.3,5c-0.3,1,0.3,1.7,0.9,1.7
				C54.9,6.7,55.3,6.2,55.7,5.4"/>
		</g>
		<g>
			<path fill="#FFFFFF" d="M44.8,5.6c-0.3,0-1-0.2-1.6,0.2s-0.8,1.1-0.1,1.3c0.6,0.2,1.5-0.2,1.6-0.8L44.8,5.6"/>
		</g>
		<g>
			<path fill="#747474" d="M30.4,8.6l1.3-6.7h1.6l0.2,0.7c0.3-0.3,0.8-0.7,1.8-0.7l-0.5,1.8c-0.4,0-1.3-0.1-1.9,1.9l-0.6,3.1
				L30.4,8.6"/>
		</g>
	</g>
</g>
</svg>
