<?xml version="1.0" encoding="utf-8"?>
<!-- Generator: Adobe Illustrator 22.0.1, SVG Export Plug-In . SVG Version: 6.00 Build 0)  -->
<svg version="1.0" id="Layer_1" xmlns="http://www.w3.org/2000/svg" xmlns:xlink="http://www.w3.org/1999/xlink" x="0px" y="0px"
	 viewBox="0 0 50.6 9.8" enable-background="new 0 0 50.6 9.8" xml:space="preserve">
<g>
	<g>
		<g>
			<polygon fill="#747474" points="10.2,9.6 7.8,9.6 9.2,2.3 6,9.6 3.9,9.6 3.5,2.3 2.1,9.6 0,9.6 1.8,0 5.5,0 5.7,6 8.3,0 12.1,0 
							"/>
		</g>
	</g>
	<g>
		<path fill="#747474" d="M7.9,5.4l1.4-3.1L8.2,8.1c0.1,0.5,0.2,1.1,0.4,1.6h1.6L12,0.1H8.5C8.1,1.6,7.8,3.3,7.8,5
			C7.9,5.1,7.9,5.2,7.9,5.4z"/>
	</g>
	<g>
		<g>
			<path fill="#747474" d="M36.4,9.5c-0.7,0.2-1.1,0.3-1.7,0.3c-1.2,0-1.8-0.6-1.8-1.7c0-0.2,0-0.4,0.1-0.7l0.1-0.8L33.2,6l1.1-5.9
				h2.3l-0.3,1.8h1.2l-0.3,1.8H36l-0.6,3.2c0,0.1-0.1,0.3-0.1,0.3c0,0.4,0.3,0.6,0.8,0.6c0.3,0,0.5,0,0.6-0.1L36.4,9.5L36.4,9.5z"/>
		</g>
	</g>
	<g>
		<g>
			<path fill="#747474" d="M43.3,1.9c-0.2-0.1-0.2-0.1-0.3-0.1s-0.2,0-0.2-0.1c-0.1,0-0.1,0-0.3,0c-0.8,0-1.3,0.3-2,1.3l0.2-1.2
				h-2.1l-1.4,7.8h2.4C40.4,4.8,40.8,4,41.9,4c0.1,0,0.2,0,0.3,0l0.3,0.1L43.3,1.9L43.3,1.9z"/>
		</g>
	</g>
	<g>
		<g>
			<path fill="#747474" d="M27.1,4.3c0,1,0.6,1.7,1.8,2.1c1,0.4,1.1,0.5,1.1,0.9C30,7.8,29.6,8,28.6,8c-0.7,0-1.4-0.1-2.1-0.3
				l-0.3,1.8h0.1l0.4,0.1c0.1,0,0.4,0,0.6,0c0.6,0.1,1,0.1,1.3,0.1c2.5,0,3.7-0.8,3.7-2.6c0-1.1-0.5-1.7-1.7-2.2
				c-1-0.4-1.1-0.5-1.1-0.8c0-0.4,0.4-0.6,1.2-0.6c0.4,0,1.1,0,1.7,0.1l0.3-1.8c-0.6-0.1-1.5-0.1-2.1-0.1C28,1.7,27.1,2.9,27.1,4.3
				L27.1,4.3z"/>
		</g>
	</g>
	<g>
		<g>
			<path fill="#747474" d="M17.8,9.6h-1.9V8.8c-0.6,0.6-1.4,0.9-2.5,0.9c-1.3,0-2.1-0.9-2.1-2.1c0-1.9,1.5-3,4.1-3c0.3,0,0.6,0,1,0
				c0.1-0.3,0.1-0.4,0.1-0.5c0-0.5-0.4-0.7-1.5-0.7c-0.7,0-1.4,0.1-1.9,0.2l-0.3,0.1h-0.2L12.9,2c1.2-0.3,1.9-0.4,2.8-0.4
				c2,0,3.1,0.8,3.1,2.3c0,0.4,0,0.7-0.2,1.6l-0.5,2.8L18,8.8l-0.1,0.4L17.8,9.6L17.8,9.6L17.8,9.6z M16.1,6.1c-0.3,0-0.4,0-0.5,0
				c-1.3,0-2,0.4-2,1.2c0,0.5,0.3,0.8,0.8,0.8C15.4,8.1,16.1,7.3,16.1,6.1L16.1,6.1z"/>
		</g>
	</g>
	<g>
		<g>
			<path fill="#747474" d="M25.5,9.4c-0.8,0.2-1.6,0.3-2.4,0.3c-2.6,0-4-1.2-4-3.5c0-2.7,1.7-4.6,4.1-4.6c1.9,0,3.1,1.1,3.1,2.8
				c0,0.6-0.1,1.1-0.3,1.9h-4.7c0,0.1,0,0.2,0,0.3c0,0.9,0.7,1.4,2,1.4c0.9,0,1.6-0.1,2.4-0.5L25.5,9.4L25.5,9.4z M24.3,4.8
				c0-0.1,0-0.3,0-0.4c0-0.6-0.4-1-1.1-1s-1.3,0.5-1.5,1.4H24.3L24.3,4.8z"/>
		</g>
	</g>
	<g>
		<g>
			<path fill="#747474" d="M50.6,6.1c-0.4,2.6-2.2,3.7-4.6,3.7c-2.6,0-3.7-1.6-3.7-3.6c0-2.7,1.8-4.6,4.6-4.6c2.4,0,3.7,1.6,3.7,3.5
				C50.6,5.6,50.6,5.6,50.6,6.1L50.6,6.1z M48.1,5.1c0-0.8-0.3-1.5-1.3-1.5c-1.2,0-1.9,1.4-1.9,2.7c0,1,0.5,1.7,1.3,1.7
				c0.5,0,1.6-0.7,1.8-1.9C48.1,5.7,48.1,5.4,48.1,5.1L48.1,5.1z"/>
		</g>
	</g>
	<g>
		<path fill="#747474" d="M42.4,7.1c0.1-0.7,0.2-1.5,0.2-2.2c0-0.1,0-0.2,0-0.2c-0.1,0.5-0.2,1-0.2,1.6C42.3,6.5,42.3,6.8,42.4,7.1z
			"/>
	</g>
</g>
</svg>
